<svg width="44" height="44" fill="none" xmlns="http://www.w3.org/2000/svg"><path fill-rule="evenodd" clip-rule="evenodd" d="M21.8938 1.4839c11.2295 0 20.3327 9.1034 20.3327 20.333 0 11.2292-9.1032 20.3325-20.3327 20.3325S1.5611 33.0461 1.5611 21.8169c0-11.2296 9.1032-20.333 20.3327-20.333z" fill="#212A3A"/><path fill-rule="evenodd" clip-rule="evenodd" d="M14 11h15c1.65 0 3 1.35 3 3v15c0 1.65-1.35 3-3 3H14c-1.65 0-3-1.35-3-3V14c0-1.65 1.35-3 3-3zm11 10.5c0-1.93-1.57-3.5-3.5-3.5S18 19.57 18 21.5s1.57 3.5 3.5 3.5 3.5-1.57 3.5-3.5zM14 29v-9h1.181A6.5068 6.5068 0 0015 21.5c0 3.5899 2.9101 6.5 6.5 6.5s6.5-2.9101 6.5-6.5a6.4513 6.4513 0 00-.181-1.5H29v9H14zm11-11h4v-4h-4v4z" fill="#fff"/></svg>